<svg class="animated" id="freepik_stories-construction" xmlns="http://www.w3.org/2000/svg" viewBox="0 0 500 500"
	version="1.1" xmlns:xlink="http://www.w3.org/1999/xlink" xmlns:svgjs="http://svgjs.com/svgjs" aria-label="under construction">
	<style>
		svg#freepik_stories-construction:not(.animated) .animable {
			opacity: 0;
		}

		svg#freepik_stories-construction.animated #freepik--Clouds--inject-4 {
			animation: 6s Infinite linear floating;
			animation-delay: 0s;
		}

		svg#freepik_stories-construction.animated #freepik--Character--inject-4 {
			animation: 6s Infinite linear shake;
			animation-delay: 0s;
		}

		@keyframes floating {
			0% {
				opacity: 1;
				transform: translateY(0px);
			}

			50% {
				transform: translateY(-10px);
			}

			100% {
				opacity: 1;
				transform: translateY(0px);
			}
		}

		@keyframes shake {

			10%,
			90% {
				transform: translate3d(-1px, 0, 0);
			}

			20%,
			80% {
				transform: translate3d(2px, 0, 0);
			}

			30%,
			50%,
			70% {
				transform: translate3d(-4px, 0, 0);
			}

			40%,
			60% {
				transform: translate3d(4px, 0, 0);
			}
		}

		.animator-hidden {
			display: none;
		}
	</style>
	<g id="freepik--background-simple--inject-4" style="transform-origin: 251.358px 251.152px 0px;" class="animable">
		<path
			d="M195.24,26.1s-48,2.88-94.16,38.43c-40.18,31-62.47,77.28-64.79,127.63-1.54,33.24,6.4,65.65,16,97.21,12.33,40.6,20.29,86.85,46,121.55,40.09,54,117.59,76.78,182.4,67.11,41.87-6.24,86.11-30,99-73,4.77-15.91,7.1-33,15.25-47.71,9.76-17.62,27.48-27.91,40.93-42.26,16.61-17.72,23.31-39.8,27.45-63.16C476.78,176,448,111.62,396.06,64.53S217.34,18.41,195.24,26.1Z"
			style="fill: #FF66E8; transform-origin: 251.358px 251.152px 0px;" id="el59vrsnovv96" class="animable">
		</path>
		<g id="eldbs10eeb6pq">
			<path
				d="M195.24,26.1s-48,2.88-94.16,38.43c-40.18,31-62.47,77.28-64.79,127.63-1.54,33.24,6.4,65.65,16,97.21,12.33,40.6,20.29,86.85,46,121.55,40.09,54,117.59,76.78,182.4,67.11,41.87-6.24,86.11-30,99-73,4.77-15.91,7.1-33,15.25-47.71,9.76-17.62,27.48-27.91,40.93-42.26,16.61-17.72,23.31-39.8,27.45-63.16C476.78,176,448,111.62,396.06,64.53S217.34,18.41,195.24,26.1Z"
				style="fill: rgb(255, 255, 255); opacity: 0.7; transform-origin: 251.358px 251.152px 0px;"
				class="animable" id="elv51j9w3hlsd"></path>
		</g>
	</g>
	<g id="freepik--Clouds--inject-4" style="transform-origin: 251.677px 75.0927px 0px;" class="animable">
		<path
			d="M202.6,65.18c-6.38-3.48-9.29-.58-11.61-3.48s6.39-10.45-11-18c0,0-1.16-16.25-25-16.83s-17.41,16.25-23.8,20.31-8.12-2.32-14.51,1.75S113.21,61.12,108,62.28s-12.19-5.23-18.57-1.16S83,68.66,80.12,68.66s-8.71-2.32-12.19,0-7.54,5.23-7.54,5.23H207.25S209,68.66,202.6,65.18Z"
			style="fill: none; stroke: rgb(38, 50, 56); stroke-linecap: round; stroke-linejoin: round; transform-origin: 133.929px 50.3727px 0px;"
			id="elipkl8g5xalf" class="animable"></path>
		<path d="M115.73,62.79a19.55,19.55,0,0,1-2.6,1.23"
			style="fill: none; stroke: rgb(38, 50, 56); stroke-linecap: round; stroke-linejoin: round; transform-origin: 114.43px 63.405px 0px;"
			id="elk2pmquub1v8" class="animable"></path>
		<path
			d="M147.14,35.68a9.92,9.92,0,0,0-5.67,7.08c-1.06,5.32-3.54,8.86-6.37,9.21s-13.46-.7-15.24,3.19a15.78,15.78,0,0,0-1,3.56"
			style="fill: none; stroke: rgb(38, 50, 56); stroke-linecap: round; stroke-linejoin: round; transform-origin: 133px 47.2px 0px;"
			id="elmorjnyziem" class="animable"></path>
		<path
			d="M160.41,119.89c-2.49-1.36-3.62-.23-4.53-1.36s2.49-4.09-4.31-7c0,0-.45-6.35-9.75-6.58s-6.81,6.35-9.3,7.94-3.18-.91-5.67.68-1.36,4.76-3.4,5.21-4.77-2-7.26-.45-2.5,3-3.63,3-3.4-.91-4.76,0-3,2-3,2h57.38S162.91,121.25,160.41,119.89Z"
			style="fill: none; stroke: rgb(38, 50, 56); stroke-linecap: round; stroke-linejoin: round; transform-origin: 133.54px 114.137px 0px;"
			id="eldlcjf3lsgr" class="animable"></path>
		<path d="M126.47,119a8.22,8.22,0,0,1-1,.47"
			style="fill: none; stroke: rgb(38, 50, 56); stroke-linecap: round; stroke-linejoin: round; transform-origin: 125.97px 119.235px 0px;"
			id="elmi9kaoj5qk" class="animable"></path>
		<path
			d="M138.75,108.36a3.88,3.88,0,0,0-2.22,2.77c-.41,2.08-1.38,3.46-2.49,3.6s-5.26-.28-5.95,1.24a6,6,0,0,0-.39,1.39"
			style="fill: none; stroke: rgb(38, 50, 56); stroke-linecap: round; stroke-linejoin: round; transform-origin: 133.225px 112.86px 0px;"
			id="elvfvyahxrbli" class="animable"></path>
		<path
			d="M441.07,106.63c-2.5-1.36-3.63-.22-4.54-1.36s2.5-4.08-4.31-7c0,0-.45-6.35-9.75-6.57s-6.8,6.35-9.3,7.93-3.17-.9-5.67.68-1.36,4.77-3.4,5.22-4.76-2-7.26-.45-2.49,2.94-3.63,2.94-3.4-.9-4.76,0S385.5,110,385.5,110h57.38S443.56,108,441.07,106.63Z"
			style="fill: none; stroke: rgb(38, 50, 56); stroke-linecap: round; stroke-linejoin: round; transform-origin: 414.232px 100.847px 0px;"
			id="eloy9kwfqtbkr" class="animable"></path>
		<path d="M407.13,105.7a7.07,7.07,0,0,1-1,.48"
			style="fill: none; stroke: rgb(38, 50, 56); stroke-linecap: round; stroke-linejoin: round; transform-origin: 406.63px 105.94px 0px;"
			id="elytwq9m5otu" class="animable"></path>
		<path
			d="M419.4,95.11a3.85,3.85,0,0,0-2.21,2.77c-.42,2.07-1.39,3.46-2.5,3.59s-5.26-.27-5.95,1.25a5.74,5.74,0,0,0-.38,1.39"
			style="fill: none; stroke: rgb(38, 50, 56); stroke-linecap: round; stroke-linejoin: round; transform-origin: 413.88px 99.61px 0px;"
			id="elvoj7zy97nep" class="animable"></path>
	</g>
	<g id="freepik--Sand--inject-4" style="transform-origin: 204.565px 193.115px 0px;" class="animable">
		<path d="M382.94,227.47c-20.8-12.83-74.18-49-90.33-47.45-14.78,1.43-55.91,32.31-71.86,47.45Z"
			style="fill: rgb(178, 178, 178); transform-origin: 301.845px 203.721px 0px;" id="elpk9l3kgaing"
			class="animable"></path>
		<path d="M260.78,227.47c-30.08-18.55-107.29-70.9-130.65-68.64-21.38,2.07-80.87,46.74-103.94,68.64Z"
			style="fill: rgb(112, 112, 112); transform-origin: 143.485px 193.115px 0px;" id="el2pdmf1kqqgj"
			class="animable"></path>
	</g>
	<g id="freepik--digger-machine--inject-4" style="transform-origin: 311.884px 143.166px 0px;" class="animable">
		<path
			d="M323,189.88c-3.72,0-8.15-1.09-10.44-5.66-4.44-8.88,3.8-18.24,11.87-26.31s9.75-16.08,9.77-16.15l1.18.23c-.06.33-1.7,8.38-10.09,16.77-7.78,7.78-15.73,16.75-11.65,24.91,3.9,7.8,15.1,4.18,15.21,4.14l.38,1.15A22.32,22.32,0,0,1,323,189.88Z"
			style="fill: rgb(38, 50, 56); transform-origin: 323.347px 165.82px 0px;" id="el0i4ji0p8vm6"
			class="animable"></path>
		<rect x="319.6" y="166.91" width="27.21" height="31.14"
			style="fill: #FF66E8; stroke: rgb(38, 50, 56); stroke-miterlimit: 10; transform-origin: 333.205px 182.48px 0px;"
			id="elklskrzi0n2m" class="animable"></rect>
		<g id="ell47joevkels">
			<rect x="337.35" y="107.49" width="3.05" height="78.18"
				style="fill: rgb(38, 50, 56); stroke: rgb(38, 50, 56); stroke-miterlimit: 10; transform-origin: 338.875px 146.58px 0px; transform: rotate(-8.61deg);"
				class="animable" id="elg69zf49f24n"></rect>
		</g>
		<g id="elmz3g6gzck4b">
			<rect x="337.88" y="139.47" width="6.81" height="46.02"
				style="fill: #FF66E8; stroke: rgb(38, 50, 56); stroke-miterlimit: 10; transform-origin: 341.285px 162.48px 0px; transform: rotate(-8.61deg);"
				class="animable" id="eljifsa6xc25f"></rect>
		</g>
		<g id="eli1g8xolrdq">
			<rect x="306.63" y="41.5" width="3.05" height="78.18"
				style="fill: rgb(38, 50, 56); stroke: rgb(38, 50, 56); stroke-miterlimit: 10; transform-origin: 308.155px 80.59px 0px; transform: rotate(-61deg);"
				class="animable" id="eliqid023uyb8"></rect>
		</g>
		<g id="elwsau39cuk1g">
			<rect x="318.81" y="65.38" width="6.81" height="46.02"
				style="fill: #FF66E8; stroke: rgb(38, 50, 56); stroke-miterlimit: 10; transform-origin: 322.215px 88.39px 0px; transform: rotate(-61deg);"
				class="animable" id="ele9lvvm8tthc"></rect>
		</g>
		<path
			d="M365.28,175.76l-1.9-6.65a5.78,5.78,0,0,0-.08-.7l-13.6-63.82a8.85,8.85,0,0,0-5.65-6.48l-77.32-28-2.12,12.7,65,28.62a8.84,8.84,0,0,1,4.87,5.44l17.17,54.57a6.05,6.05,0,0,0,6.6,4.18l-.05.1Z"
			style="fill: #FF66E8; stroke: rgb(38, 50, 56); stroke-miterlimit: 10; transform-origin: 314.945px 122.935px 0px;"
			id="elcrut3uvmwy" class="animable"></path>
		<path
			d="M341.67,116.91l17.17,54.57a6.05,6.05,0,0,0,7.82,3.88h0a6,6,0,0,0,3.85-7l-13.6-63.82a8.84,8.84,0,0,0-5.64-6.48l-77.33-28-2.11,12.7,65,28.62A8.84,8.84,0,0,1,341.67,116.91Z"
			style="fill: #FF66E8; stroke: rgb(38, 50, 56); stroke-miterlimit: 10; transform-origin: 321.247px 122.889px 0px;"
			id="elhb1vis95rwl" class="animable"></path>
		<rect x="332.61" y="183.54" width="54.13" height="29.03"
			style="fill: #FF66E8; stroke: rgb(38, 50, 56); stroke-miterlimit: 10; transform-origin: 359.675px 198.055px 0px;"
			id="elh2dtl8kjolo" class="animable"></rect>
		<path
			d="M457.77,212.93l-43.51-13a20.75,20.75,0,0,0-6.08-1.09l-2.78-.18H393v.21a20.67,20.67,0,0,0-2.61,0V187.78h-4.84v12L341.61,214a6.29,6.29,0,0,0-4.36,6v1.21a6.3,6.3,0,0,0,6.29,6.3h112.1a7.43,7.43,0,0,0,2.13-14.54Z"
			style="fill: rgb(38, 50, 56); stroke: rgb(38, 50, 56); stroke-miterlimit: 10; transform-origin: 400.147px 207.645px 0px;"
			id="elxfxcyyeozs" class="animable"></path>
		<path
			d="M411.89,190.33V132.69a1.94,1.94,0,0,0-1.94-1.95H372.58a13.78,13.78,0,0,0-11.79,6.63h0a13.74,13.74,0,0,0-2,7.17v45.79Z"
			style="fill: rgb(38, 50, 56); stroke: rgb(38, 50, 56); stroke-miterlimit: 10; transform-origin: 385.34px 160.535px 0px;"
			id="eltelqyje3ced" class="animable"></path>
		<polygon
			points="358.78 168.31 384.25 168.31 384.25 190.33 386.41 190.33 386.41 168.31 408 168.31 408 166.15 386.41 166.15 386.41 132.47 384.25 132.47 384.25 166.15 358.78 166.15 358.78 168.31"
			style="fill: #FF66E8; stroke: rgb(38, 50, 56); stroke-miterlimit: 10; transform-origin: 383.39px 161.4px 0px;"
			id="elo60ie30g0x" class="animable"></polygon>
		<path d="M410,130.74H372.58a13.77,13.77,0,0,0-9.1,3.46h43.23v56.13h5.18V132.69A1.94,1.94,0,0,0,410,130.74Z"
			style="fill: #FF66E8; stroke: rgb(38, 50, 56); stroke-miterlimit: 10; transform-origin: 387.685px 160.535px 0px;"
			id="el4nhmpbinh8r" class="animable"></path>
		<polygon points="442.12 190.33 442.12 161.4 411.89 161.4 383.8 190.33 442.12 190.33"
			style="fill: #FF66E8; stroke: rgb(38, 50, 56); stroke-miterlimit: 10; transform-origin: 412.96px 175.865px 0px;"
			id="elcmm2llu2c7g" class="animable"></polygon>
		<polygon points="442.12 167.45 415.78 167.45 403.69 180.83 442.12 180.83 442.12 167.45"
			style="fill: rgb(38, 50, 56); stroke: rgb(38, 50, 56); stroke-miterlimit: 10; transform-origin: 422.905px 174.14px 0px;"
			id="elmmbqubx9kcs" class="animable"></polygon>
		<path
			d="M414.53,212.93l-43.51-13a20.75,20.75,0,0,0-6.08-1.09l-2.78-.18H349.74l-.24,3.92L314.08,214a6.29,6.29,0,0,0-4.36,6v1.21a6.3,6.3,0,0,0,6.3,6.3H412.4a7.43,7.43,0,0,0,2.13-14.54Z"
			style="fill: rgb(84, 84, 84); stroke: rgb(38, 50, 56); stroke-miterlimit: 10; transform-origin: 364.762px 213.085px 0px;"
			id="el43o451z4dtg" class="animable"></path>
		<path
			d="M342.35,199.77l-44,14.2a6.29,6.29,0,0,0-4.36,6v1.21a6.3,6.3,0,0,0,6.29,6.3h96.39a7.43,7.43,0,0,0,7.43-7.43h0a7.42,7.42,0,0,0-5.3-7.11l-43.51-13A20.52,20.52,0,0,0,342.35,199.77Z"
			style="fill: rgb(138, 138, 138); stroke: rgb(38, 50, 56); stroke-miterlimit: 10; transform-origin: 349.045px 213.143px 0px;"
			id="el4r0x3v3cwv2" class="animable"></path>
		<path
			d="M300.3,223.84a2.68,2.68,0,0,1-2.67-2.67V220a2.67,2.67,0,0,1,1.85-2.54l44-14.19a16.6,16.6,0,0,1,5.18-.82,16.83,16.83,0,0,1,5.49.92l43.65,13.07a3.8,3.8,0,0,1-1.09,7.44Z"
			style="fill: rgb(38, 50, 56); stroke: rgb(38, 50, 56); stroke-miterlimit: 10; transform-origin: 349.07px 213.165px 0px;"
			id="elg16ypgfzcy9" class="animable"></path>
		<path
			d="M274.3,76.58,273.7,64a5.44,5.44,0,0,0-7.12-4.91L250.1,64.44a13.13,13.13,0,0,0-7.86,7l-23.31,51,8.17,8.77,43.52-44.91A13.12,13.12,0,0,0,274.3,76.58Z"
			style="fill: #FF66E8; stroke: rgb(38, 50, 56); stroke-miterlimit: 10; transform-origin: 246.622px 95.016px 0px;"
			id="eln2kejpgjc2e" class="animable"></path>
		<path
			d="M278.81,76.58,278.21,64a5.44,5.44,0,0,0-7.12-4.91l-16.47,5.38a13.07,13.07,0,0,0-7.86,7l-23.31,51,8.16,8.77,43.52-44.91A13.08,13.08,0,0,0,278.81,76.58Z"
			style="fill: #FF66E8; stroke: rgb(38, 50, 56); stroke-miterlimit: 10; transform-origin: 251.138px 95.031px 0px;"
			id="el7wl1qoz31rh" class="animable"></path>
		<path d="M205,108.25H182a19.2,19.2,0,0,0-12,2.72c-20.87,12.1,0,43.85,0,43.85h28.12l9.07-25.7Z"
			style="fill: rgb(84, 84, 84); stroke: rgb(38, 50, 56); stroke-miterlimit: 10; transform-origin: 183.957px 131.484px 0px;"
			id="ellj4ybptlhpn" class="animable"></path>
		<path d="M235.24,129.12l-37.19,25.7s-20.87-31.75,0-43.85S235.24,129.12,235.24,129.12Z"
			style="fill: rgb(38, 50, 56); stroke: rgb(38, 50, 56); stroke-miterlimit: 10; transform-origin: 212.007px 131.467px 0px;"
			id="el1at30eqp3ps" class="animable"></path>
		<polygon
			points="169.93 154.82 169.93 165.7 172.27 165.7 172.27 160.5 174.07 160.5 174.07 165.7 177.19 165.7 177.19 160.5 179 160.5 179 165.7 182.11 165.7 182.11 160.5 183.92 160.5 183.92 165.7 187.03 165.7 187.03 160.5 188.84 160.5 188.84 165.7 191.95 165.7 191.95 160.5 193.76 160.5 193.76 165.7 198.05 165.7 198.05 154.82 169.93 154.82"
			style="fill: rgb(138, 138, 138); stroke: rgb(38, 50, 56); stroke-miterlimit: 10; transform-origin: 183.99px 160.26px 0px;"
			id="elvr9oasgilno" class="animable"></polygon>
	</g>
	<g id="freepik--floor-2--inject-4" style="transform-origin: 250.73px 227.47px 0px;" class="animable">
		<line x1="16" y1="227.47" x2="485.46" y2="227.47"
			style="fill: rgb(255, 255, 255); stroke: rgb(38, 50, 56); stroke-miterlimit: 10; transform-origin: 250.73px 227.47px 0px;"
			id="elmd3vtatwrl" class="animable"></line>
	</g>
	<g id="freepik--concrete-mixer--inject-4" style="transform-origin: 327.725px 353.205px 0px;"
		class="animable animator-hidden">
		<rect x="282.93" y="302.2" width="122.12" height="5.7"
			style="fill: rgb(255, 255, 255); stroke: rgb(38, 50, 56); stroke-linejoin: round; transform-origin: 343.99px 305.05px 0px;"
			id="elhbb8avmn74g" class="animable"></rect>
		<path d="M294.92,308.17l10.16,18.62c3.36,6.89,16.41,10.22,36.64,10.22s34-4.15,36.65-10.22l10.16-18.62Z"
			style="fill: rgb(255, 255, 255); stroke: rgb(38, 50, 56); stroke-linejoin: round; transform-origin: 341.725px 322.59px 0px;"
			id="el23yhkh9s5n6" class="animable"></path>
		<path d="M299.13,315.88c9.38,5.16,25,8.54,42.59,8.54s33.22-3.38,42.6-8.54l4.21-7.71H294.92Z"
			style="fill: rgb(38, 50, 56); stroke: rgb(38, 50, 56); stroke-linejoin: round; transform-origin: 341.725px 316.295px 0px;"
			id="elib3wenxoo9" class="animable"></path>
		<ellipse cx="341.72" cy="302.06" rx="51.94" ry="19.95"
			style="fill: #FF66E8; stroke: rgb(38, 50, 56); stroke-linejoin: round; transform-origin: 341.72px 302.06px 0px;"
			id="elrbs5q3q35mi" class="animable"></ellipse>
		<path
			d="M384.37,287,371.79,259H311.65L299.08,287c-1.46,3.27-3.26,6.37-4.91,9.55a7.17,7.17,0,0,0-.85,3.34c0,9.83,21.67,17.81,48.4,17.81s48.41-8,48.41-17.81a7.17,7.17,0,0,0-.85-3.34C387.63,293.41,385.83,290.31,384.37,287Z"
			style="fill: rgb(255, 255, 255); stroke: rgb(38, 50, 56); stroke-linejoin: round; transform-origin: 341.725px 288.35px 0px;"
			id="elwwu7r86xgy" class="animable"></path>
		<line x1="384.01" y1="295.09" x2="385.92" y2="299.06"
			style="fill: none; stroke: rgb(38, 50, 56); stroke-linecap: round; stroke-linejoin: round; transform-origin: 384.965px 297.075px 0px;"
			id="elnalzcc3g7q" class="animable"></line>
		<line x1="369.88" y1="265.75" x2="380.89" y2="288.62"
			style="fill: none; stroke: rgb(38, 50, 56); stroke-linecap: round; stroke-linejoin: round; transform-origin: 375.385px 277.185px 0px;"
			id="elyclzgpfgsvr" class="animable"></line>
		<ellipse cx="341.72" cy="258.95" rx="30.07" ry="10.21"
			style="fill: rgb(38, 50, 56); stroke: rgb(38, 50, 56); stroke-linejoin: round; transform-origin: 341.72px 258.95px 0px;"
			id="eloeft7ny6tdb" class="animable"></ellipse>
		<rect x="250.07" y="312.17" width="12.61" height="3.39"
			style="fill: rgb(255, 255, 255); stroke: rgb(38, 50, 56); stroke-linejoin: round; transform-origin: 256.375px 313.865px 0px;"
			id="eludbajdm7l7g" class="animable"></rect>
		<path
			d="M267.39,353.62l-2.13-3.36,16.05-17.56-18.89-17.28,1.9-3.58L285,330.75a2.4,2.4,0,0,1,.71,1.7,2.49,2.49,0,0,1-.59,1.77Z"
			style="fill: rgb(255, 255, 255); stroke: rgb(38, 50, 56); stroke-linejoin: round; transform-origin: 274.067px 332.73px 0px;"
			id="elhsk4o4dk5dp" class="animable"></path>
		<path
			d="M271.68,301.5c-7.65,0-13.85,13-13.85,29.1s6.2,29.1,13.85,29.1,13.85-13,13.85-29.1S279.33,301.5,271.68,301.5Zm.74,52.77c-5.82,0-10.53-10.6-10.53-23.67s4.71-23.66,10.53-23.66S283,317.53,283,330.6,278.23,354.27,272.42,354.27Z"
			style="fill: rgb(255, 255, 255); stroke: rgb(38, 50, 56); stroke-linejoin: round; transform-origin: 271.68px 330.6px 0px;"
			id="elm3f0u7kd3t" class="animable"></path>
		<polygon
			points="377.13 378.13 309.72 378.13 284.5 353.4 286.44 403.83 309.38 382.98 377.13 382.98 377.13 378.13"
			style="fill: rgb(255, 255, 255); stroke: rgb(38, 50, 56); stroke-linejoin: round; transform-origin: 330.815px 378.615px 0px;"
			id="elex60feym5ag" class="animable"></polygon>
		<polygon points="425.66 393.05 368.67 393.05 384.19 351.94 441.18 351.94 425.66 393.05"
			style="fill: rgb(255, 255, 255); stroke: rgb(38, 50, 56); stroke-linejoin: round; transform-origin: 404.925px 372.495px 0px;"
			id="elp76vilulodp" class="animable"></polygon>
		<rect x="402.62" y="285.1" width="56.99" height="84.67"
			style="fill: rgb(255, 255, 255); stroke: rgb(38, 50, 56); stroke-linejoin: round; transform-origin: 431.115px 327.435px 0px;"
			id="elz5hgt4pctu" class="animable"></rect>
		<g id="el1b27unp5vql">
			<rect x="191.39" y="432.11" width="95.06" height="3.88"
				style="fill: rgb(255, 255, 255); stroke: rgb(38, 50, 56); stroke-linejoin: round; transform-origin: 238.92px 434.05px 0px; transform: rotate(-27.43deg);"
				class="animable" id="elk35dicps1ob"></rect>
		</g>
		<rect x="279.65" y="282.1" width="8.24" height="175.56"
			style="fill: rgb(255, 255, 255); stroke: rgb(38, 50, 56); stroke-linejoin: round; transform-origin: 283.77px 369.88px 0px;"
			id="el45jqki6pkbl" class="animable"></rect>
		<circle cx="402.6" cy="417.17" r="40.5"
			style="fill: rgb(38, 50, 56); stroke: rgb(38, 50, 56); stroke-linejoin: round; transform-origin: 402.6px 417.17px 0px;"
			id="elb58q6jc0eng" class="animable"></circle>
		<circle cx="402.6" cy="417.17" r="29.83"
			style="fill: #FF66E8; stroke: rgb(38, 50, 56); stroke-miterlimit: 10; transform-origin: 402.6px 417.17px 0px;"
			id="elq91cc75k4s" class="animable"></circle>
	</g>
	<g id="freepik--Character--inject-4" style="transform-origin: 134.339px 294.475px 0px;" class="animable">
		<path
			d="M63.37,440.28l-3.26,5.45s-6.3,1-8,3.15-1.4,8.4-1.4,8.4H93.72a8.84,8.84,0,0,0,0-4.55l-1-3.15s1.75-7,1.4-10.85H64.66Z"
			style="fill: #FF66E8; stroke: rgb(38, 50, 56); stroke-miterlimit: 10; transform-origin: 72.4279px 448.005px 0px;"
			id="elj93zqu8lnkk" class="animable"></path>
		<path d="M50.66,457.28H93.72a9.24,9.24,0,0,0,.09-4.2h-43A30.68,30.68,0,0,0,50.66,457.28Z"
			style="fill: rgb(255, 255, 255); stroke: rgb(38, 50, 56); stroke-miterlimit: 10; transform-origin: 72.3262px 455.18px 0px;"
			id="eljtrrs2vsbsa" class="animable"></path>
		<path d="M75.87,442.58H66.41a1,1,0,1,1,0-2.1h9.46a1.05,1.05,0,1,1,0,2.1Z"
			style="fill: rgb(38, 50, 56); transform-origin: 71.14px 441.53px 0px;" id="elzgw87mwa6a" class="animable">
		</path>
		<path d="M74.47,445H65a1.05,1.05,0,1,1,0-2.1h9.46a1.05,1.05,0,0,1,0,2.1Z"
			style="fill: rgb(38, 50, 56); transform-origin: 69.73px 443.95px 0px;" id="el7gymkm309od" class="animable">
		</path>
		<path d="M73.06,447.48H63.61a1.05,1.05,0,1,1,0-2.1h9.45a1.05,1.05,0,0,1,0,2.1Z"
			style="fill: rgb(38, 50, 56); transform-origin: 68.335px 446.43px 0px;" id="elj1706w9uwj" class="animable">
		</path>
		<line x1="83.22" y1="457.28" x2="86.37" y2="448.88"
			style="fill: none; stroke: rgb(38, 50, 56); stroke-miterlimit: 10; transform-origin: 84.795px 453.08px 0px;"
			id="eleqlcrhdpwm6" class="animable"></line>
		<path
			d="M205.33,440.28l3.26,5.45s6.3,1,8,3.15,1.4,8.4,1.4,8.4H175a8.84,8.84,0,0,1,0-4.55l1.05-3.15s-1.75-7-1.4-10.85H204Z"
			style="fill: #FF66E8; stroke: rgb(38, 50, 56); stroke-miterlimit: 10; transform-origin: 196.307px 448.005px 0px;"
			id="elpcksndy4my" class="animable"></path>
		<path d="M218,457.28H175a9.24,9.24,0,0,1-.09-4.2h43A30.68,30.68,0,0,1,218,457.28Z"
			style="fill: rgb(255, 255, 255); stroke: rgb(38, 50, 56); stroke-miterlimit: 10; transform-origin: 196.373px 455.18px 0px;"
			id="eltusiutx8ybb" class="animable"></path>
		<path d="M192.83,442.58h9.46a1,1,0,1,0,0-2.1h-9.46a1.05,1.05,0,1,0,0,2.1Z"
			style="fill: rgb(38, 50, 56); transform-origin: 197.56px 441.53px 0px;" id="eljpq7aeuy81" class="animable">
		</path>
		<path d="M194.23,445h9.46a1,1,0,0,0,0-2.1h-9.46a1.05,1.05,0,0,0,0,2.1Z"
			style="fill: rgb(38, 50, 56); transform-origin: 198.96px 443.95px 0px;" id="elpusrdg1omcc" class="animable">
		</path>
		<path d="M195.63,447.48h9.46a1.05,1.05,0,0,0,0-2.1h-9.46a1,1,0,1,0,0,2.1Z"
			style="fill: rgb(38, 50, 56); transform-origin: 200.36px 446.43px 0px;" id="el750fp7q2w1p" class="animable">
		</path>
		<line x1="185.48" y1="457.28" x2="182.33" y2="448.88"
			style="fill: none; stroke: rgb(38, 50, 56); stroke-miterlimit: 10; transform-origin: 183.905px 453.08px 0px;"
			id="elh36zecot3nn" class="animable"></line>
		<path
			d="M203.74,428.17c0-.95-4.78-2.54-4.78-2.54s-1.91-23.58-2.23-30.58-9.87-22.62-11.78-29.31-7.33-49.69-9.88-64.35-8.92-36-8.92-36l.32-1.91H102.23l.32,1.91s-6.37,21.34-8.92,36-8,57.66-9.88,64.35S72.29,388,72,395.05s-2.23,30.58-2.23,30.58S65,427.22,65,428.17s-1.59,12.11-1.59,12.11H94s2.86-7.65,2.54-11.15-2.22-4.46-1.27-8.28,10.51-35.68,13.38-46.51a186.78,186.78,0,0,1,5.73-18.16l20-66.61,20,66.61a186.78,186.78,0,0,1,5.73,18.16c2.87,10.83,12.42,42.69,13.38,46.51s-1,4.78-1.28,8.28,2.55,11.15,2.55,11.15h30.58S203.74,429.13,203.74,428.17Z"
			style="fill: rgb(38, 50, 56); stroke: rgb(38, 50, 56); stroke-miterlimit: 10; transform-origin: 134.375px 351.88px 0px;"
			id="el93jrq0flq57" class="animable"></path>
		<path
			d="M102.23,178.75s-10.83.64-13.7,3.82-32.14,42.05-31.18,46.19a1.74,1.74,0,0,0,.13.36,5.82,5.82,0,0,0,.18,2.83c1.6,4.78,25.77,22.62,25.77,22.62l14.66-5.74L81.66,227.67c8.75-6.83,20.25-16.43,20.25-16.43Z"
			style="fill: rgb(255, 255, 255); transform-origin: 79.7785px 216.66px 0px;" id="elj84i9iz4yb"
			class="animable"></path>
		<polygon points="98.09 248.83 97.15 247.63 97.15 249.2 98.09 248.83"
			style="fill: #FF66E8; transform-origin: 97.62px 248.415px 0px;" id="elm17r3uf27db" class="animable">
		</polygon>
		<path
			d="M100,185.28h-.8v-6.22c-.61.07-1.29.17-2,.29v5.93H91.64v-4.55c-.35.13-.69.27-1,.41v4.14H88.92V182.2c-.14.12-.27.25-.39.37-.44.49-1.49,1.81-3,3.71h.34v7.41h-.8v-6.82l-2,2.62v4.2H80l-.74,1h3.9v7.42H77.6v-5.23l-1,1.37v3.86H74.89V200.6q-1.5,2.07-3,4.18v5.75h-.8V205.9c-.68.95-1.34,1.9-2,2.84v1.79H67.84l-.69,1h1.94V219H63.57v-2.08l-1,1.54V219h-.34c-.22.34-.43.67-.63,1h1v7.42H60.86v-6.21a45.62,45.62,0,0,0-3,5.52v.69h-.27a4.67,4.67,0,0,0-.25,1h.52v4a20.66,20.66,0,0,0,3.76,4.41h1v.9l1,.92v-1.82h5.52v6.57l2.25,1.85h.55v.44c1,.82,2,1.62,3,2.38v-2.82H76.6v4.16l1,.78v-4.94h5.52v7.57h2v-7.57h.8v7.57H88l.91-.36v-7.21h1.72v6.54l1-.39v-6.15h3.63l-.77-1H91.64v-3.69l-1-1.28v5H88.92V237l-3-3.87v2.63h-.8v-3.66l-2-2.57v6.23H77.6v-7.42h4.6l-.54-.7.38-.3H77.6V220h5.52v6.57c.66-.51,1.33-1,2-1.58v-5h.8v4.35l3-2.4v-2h1.72v.56L92.55,219h-.91v-7.42h5.51v3.65c.74-.6,1.41-1.16,2-1.65v-2h.8v1.34l2-1.63.32-32.49s-.92.06-2.28.21ZM62.57,235.79H60.86v-7.42h1.71Zm6.52,0H63.57v-7.42h5.52Zm0-8.42H63.57V220h5.52Zm2.8,16.84h-.8v-7.42h.8Zm0-8.42h-.8v-7.42h.8Zm0-8.42h-.8V220h.8Zm0-8.42h-.8v-7.42h.8Zm4.71,25.26H74.89v-7.42H76.6Zm0-8.42H74.89v-7.42H76.6Zm0-8.42H74.89V220H76.6Zm0-8.42H74.89v-7.42H76.6Zm0-8.42H74.89v-7.42H76.6Zm8.52,26.26h.8v7.42h-.8Zm-2,0v7.42H77.6v-7.42Zm0-17.84H77.6v-7.42h5.52Zm0-8.42H77.6v-7.42h5.52Zm2.8,8.42h-.8v-7.42h.8Zm0-8.42h-.8v-7.42h.8Zm0-8.42h-.8v-7.42h.8ZM90.64,219H88.92v-7.42h1.72Zm0-8.42H88.92v-7.42h1.72Zm0-8.42H88.92v-7.42h1.72Zm0-8.42H88.92v-7.41h1.72Zm6.51,16.84H91.64v-7.42h5.51Zm0-8.42H91.64v-7.42h5.51Zm0-8.42H91.64v-7.41h5.51Zm2.8,16.84h-.8v-7.42h.8Zm0-8.42h-.8v-7.42h.8Zm0-8.42h-.8v-7.41h.8Z"
			style="fill: #FF66E8; transform-origin: 79.805px 215.81px 0px;" id="el5m4oitu7qih" class="animable"></path>
		<path d="M57.48,229.12c.61-3.71,4.19-6.86,4.19-6.86"
			style="fill: none; stroke: rgb(38, 50, 56); stroke-miterlimit: 10; transform-origin: 59.575px 225.69px 0px;"
			id="elwjsvpvfkk6k" class="animable"></path>
		<line x1="81.66" y1="227.67" x2="78.05" y2="223.03"
			style="fill: none; stroke: rgb(38, 50, 56); stroke-miterlimit: 10; transform-origin: 79.855px 225.35px 0px;"
			id="el8fr1hnqifrm" class="animable"></line>
		<path d="M57.48,229.12a5.82,5.82,0,0,0,.18,2.83c1.6,4.78,25.77,22.62,25.77,22.62l14.66-5.74L81.66,227.67"
			style="fill: none; stroke: rgb(38, 50, 56); stroke-miterlimit: 10; transform-origin: 77.7366px 241.12px 0px;"
			id="elmwlq3otntj" class="animable"></path>
		<path
			d="M81.66,227.67c8.75-6.83,20.25-16.43,20.25-16.43l.32-32.49s-10.83.64-13.7,3.82-32.14,42.05-31.18,46.19a1.74,1.74,0,0,0,.13.36"
			style="fill: none; stroke: rgb(38, 50, 56); stroke-miterlimit: 10; transform-origin: 79.7785px 203.935px 0px;"
			id="elym1wuzft42h" class="animable"></path>
		<path
			d="M167.89,178.75s10.83.64,13.7,3.82,32.14,42.05,31.18,46.19a1.74,1.74,0,0,1-.13.36,5.82,5.82,0,0,1-.18,2.83c-1.6,4.78-25.78,22.62-25.78,22.62L172,248.83l16.43-21.16c-8.75-6.83-20.25-16.43-20.25-16.43Z"
			style="fill: rgb(255, 255, 255); transform-origin: 190.342px 216.66px 0px;" id="ellr7wifkz18c"
			class="animable"></path>
		<polygon points="172.03 248.83 172.97 247.63 172.97 249.2 172.03 248.83"
			style="fill: #FF66E8; transform-origin: 172.5px 248.415px 0px;" id="elas5yj9vdhq" class="animable">
		</polygon>
		<path
			d="M170.17,185.28h.8v-6.22c.61.07,1.29.17,2,.29v5.93h5.51v-4.55c.35.13.69.27,1,.41v4.14h1.72V182.2c.14.12.27.25.39.37.43.49,1.49,1.81,2.95,3.71h-.34v7.41h.8v-6.82l2,2.62v4.2h3.16l.74,1H187v7.42h5.52v-5.23l1,1.37v3.86h1.71V200.6q1.5,2.07,3,4.18v5.75h.8V205.9l2,2.84v1.79h1.24c.24.34.47.67.69,1H201V219h5.52v-2.08l1,1.54V219h.34c.22.34.43.67.63,1h-1v7.42h1.71v-6.21a45.62,45.62,0,0,1,3,5.52v.69h.27a4.67,4.67,0,0,1,.25,1h-.52v4a20.66,20.66,0,0,1-3.76,4.41h-.95v.9l-1,.92v-1.82H201v6.57l-2.25,1.85h-.55v.44c-1,.82-2,1.62-3,2.38v-2.82h-1.71v4.16l-1,.78v-4.94H187v7.57h-2v-7.57h-.8v7.57h-2.09l-.91-.36v-7.21h-1.72v6.54l-1-.39v-6.15h-3.63l.77-1h2.86v-3.69l1-1.28v5h1.72V237l3-3.87v2.63h.8v-3.66l2-2.57v6.23h5.52v-7.42h-4.6l.54-.7-.38-.3h4.44V220H187v6.57c-.66-.51-1.33-1-2-1.58v-5h-.8v4.35l-3-2.4v-2h-1.72v.56L177.57,219h.91v-7.42H173v3.65c-.74-.6-1.41-1.16-2-1.65v-2h-.8v1.34l-2-1.63-.32-32.49s.91.06,2.28.21Zm37.38,50.51h1.71v-7.42h-1.71Zm-6.52,0h5.52v-7.42H201Zm0-8.42h5.52V220H201Zm-2.8,16.84h.8v-7.42h-.8Zm0-8.42h.8v-7.42h-.8Zm0-8.42h.8V220h-.8Zm0-8.42h.8v-7.42h-.8Zm-4.71,25.26h1.71v-7.42h-1.71Zm0-8.42h1.71v-7.42h-1.71Zm0-8.42h1.71V220h-1.71Zm0-8.42h1.71v-7.42h-1.71Zm0-8.42h1.71v-7.42h-1.71ZM185,236.79h-.8v7.42h.8Zm2,0v7.42h5.52v-7.42ZM187,219h5.52v-7.42H187Zm0-8.42h5.52v-7.42H187ZM184.2,219h.8v-7.42h-.8Zm0-8.42h.8v-7.42h-.8Zm0-8.42h.8v-7.42h-.8ZM179.48,219h1.72v-7.42h-1.72Zm0-8.42h1.72v-7.42h-1.72Zm0-8.42h1.72v-7.42h-1.72Zm0-8.42h1.72v-7.41h-1.72ZM173,210.53h5.51v-7.42H173Zm0-8.42h5.51v-7.42H173Zm0-8.42h5.51v-7.41H173Zm-2.8,16.84h.8v-7.42h-.8Zm0-8.42h.8v-7.42h-.8Zm0-8.42h.8v-7.41h-.8Z"
			style="fill: #FF66E8; transform-origin: 190.3px 215.81px 0px;" id="elwlp6rn9bs9b" class="animable"></path>
		<path d="M212.64,229.12c-.61-3.71-4.19-6.86-4.19-6.86"
			style="fill: none; stroke: rgb(38, 50, 56); stroke-miterlimit: 10; transform-origin: 210.545px 225.69px 0px;"
			id="eltrcan87fki" class="animable"></path>
		<line x1="188.46" y1="227.67" x2="192.07" y2="223.03"
			style="fill: none; stroke: rgb(38, 50, 56); stroke-miterlimit: 10; transform-origin: 190.265px 225.35px 0px;"
			id="el2deu92gap51" class="animable"></line>
		<path d="M212.64,229.12a5.82,5.82,0,0,1-.18,2.83c-1.6,4.78-25.78,22.62-25.78,22.62L172,248.83l16.43-21.16"
			style="fill: none; stroke: rgb(38, 50, 56); stroke-miterlimit: 10; transform-origin: 192.368px 241.12px 0px;"
			id="elevf16gef9yk" class="animable"></path>
		<path
			d="M188.46,227.67c-8.75-6.83-20.25-16.43-20.25-16.43l-.32-32.49s10.83.64,13.7,3.82,32.14,42.05,31.18,46.19a1.74,1.74,0,0,1-.13.36"
			style="fill: none; stroke: rgb(38, 50, 56); stroke-miterlimit: 10; transform-origin: 190.342px 203.935px 0px;"
			id="elddam48cabyk" class="animable"></path>
		<polygon
			points="121.98 170.79 100.32 178.12 102.55 265.4 167.21 265.4 170.08 175.89 143.32 168.94 121.98 170.79"
			style="fill: #FF66E8; stroke: rgb(38, 50, 56); stroke-miterlimit: 10; transform-origin: 135.2px 217.17px 0px;"
			id="elhqx4wwpmw7k" class="animable"></polygon>
		<polygon points="101.56 226.85 101.86 238.64 168.07 238.64 168.45 226.85 101.56 226.85"
			style="fill: rgb(255, 255, 255); stroke: rgb(38, 50, 56); stroke-miterlimit: 10; transform-origin: 135.005px 232.745px 0px;"
			id="el7dj4bt1zn98" class="animable"></polygon>
		<polygon points="167.41 259.35 167.78 247.56 102.09 247.56 102.39 259.35 167.41 259.35"
			style="fill: rgb(255, 255, 255); stroke: rgb(38, 50, 56); stroke-miterlimit: 10; transform-origin: 134.935px 253.455px 0px;"
			id="eltlevbb95mod" class="animable"></polygon>
		<polygon points="123.57 181.94 136.31 216.66 147.46 181.3 123.57 181.94"
			style="fill: rgb(255, 255, 255); transform-origin: 135.515px 198.98px 0px;" id="eliv8b5dq14j"
			class="animable"></polygon>
		<path
			d="M144.34,186.35v4.86l2-6.34v-3.54l-2,0v4h-5.52v-3.82l-1,0v3.79H136.1V181.6l-3,.08v3.67h-.8V181.7l-2,.06v3.59h-3.15c-.25.33-.5.66-.74,1h3.89v7.42h-2.39l.37,1h2v5.52l2,5.45v-2.55h.8v4.73l2.28,6.21.72-.58v-1.94h1.72v.27l1-3.17v-5.52h1.74l.32-1h-2.06v-7.42h4.4l.31-1h-4.71v-7.42ZM133.1,202.19h-.8v-7.42h.8Zm0-8.42h-.8v-7.42h.8Zm4.72,16.84H136.1v-7.42h1.72Zm0-8.42H136.1v-7.42h1.72Zm0-8.42H136.1v-7.42h1.72Z"
			style="fill: #FF66E8; transform-origin: 136.375px 197.73px 0px;" id="el1edjlhldpi3" class="animable"></path>
		<polygon points="147.14 182.34 147.46 181.3 147.14 181.31 147.14 182.34"
			style="fill: #FF66E8; transform-origin: 147.3px 181.82px 0px;" id="elxj1fcw2q428" class="animable">
		</polygon>
		<polygon points="123.57 181.94 136.31 216.66 147.46 181.3 123.57 181.94"
			style="fill: none; stroke: rgb(38, 50, 56); stroke-miterlimit: 10; transform-origin: 135.515px 198.98px 0px;"
			id="el32gzdb2ud2t" class="animable"></polygon>
		<rect x="90.44" y="274" width="85.69" height="5.1" rx="2.43"
			style="fill: rgb(176, 176, 176); stroke: rgb(38, 50, 56); stroke-miterlimit: 10; transform-origin: 133.285px 276.55px 0px;"
			id="elzjdi5bthds" class="animable"></rect>
		<rect x="132.35" y="418.77" width="3.15" height="38.89"
			style="fill: rgb(38, 50, 56); stroke: rgb(38, 50, 56); stroke-miterlimit: 10; transform-origin: 133.925px 438.215px 0px;"
			id="elg0h9bs19ch" class="animable"></rect>
		<path
			d="M152.24,278.78c0-8.62-8.2-10.83-18.32-10.83s-18.31,2.21-18.31,10.83a14.59,14.59,0,0,0,5.92,11.47,12,12,0,0,1,4.75,9.38V421.57h15.4v-122a12,12,0,0,1,4.7-9.35A14.61,14.61,0,0,0,152.24,278.78Z"
			style="fill: rgb(176, 176, 176); stroke: rgb(38, 50, 56); stroke-miterlimit: 10; transform-origin: 133.925px 344.76px 0px;"
			id="el75a1vfls6cc" class="animable"></path>
		<rect x="119.11" y="266.99" width="28.67" height="28.9" rx="3.94"
			style="fill: #FF66E8; stroke: rgb(38, 50, 56); stroke-miterlimit: 10; transform-origin: 133.445px 281.44px 0px;"
			id="elf9uxup7mqn" class="animable"></rect>
		<polygon points="121.31 353.31 146.65 353.31 142.03 396.02 125.93 396.02 121.31 353.31"
			style="fill: #FF66E8; stroke: rgb(38, 50, 56); stroke-miterlimit: 10; transform-origin: 133.98px 374.665px 0px;"
			id="el7u3r9yootnu" class="animable"></polygon>
		<path
			d="M188.55,256.16s-5.73-6.37-11.78-8.92-14-1.27-14-1.27l-5.41,20.38s-4.46,1.6-5.1,3.51c-.45,1.36.22,7.09.65,10.27a2.49,2.49,0,0,0,2.47,2.15h13.13s3.5.64,3.5-2.55v-5.41s2.23-1.91,2.55-3.19a11.87,11.87,0,0,0,.32-2.55Z"
			style="fill: #FF66E8; stroke: rgb(38, 50, 56); stroke-miterlimit: 10; transform-origin: 170.33px 263.991px 0px;"
			id="elbn62vs4z2ub" class="animable"></path>
		<line x1="156.38" y1="281.96" x2="155.43" y2="271.13"
			style="fill: none; stroke: rgb(38, 50, 56); stroke-miterlimit: 10; transform-origin: 155.905px 276.545px 0px;"
			id="elot1d2uldb99" class="animable"></line>
		<line x1="160.84" y1="282.28" x2="160.84" y2="271.77"
			style="fill: none; stroke: rgb(38, 50, 56); stroke-miterlimit: 10; transform-origin: 160.84px 277.025px 0px;"
			id="el91q9dh1iw9r" class="animable"></line>
		<line x1="165.94" y1="281.64" x2="165.94" y2="272.09"
			style="fill: none; stroke: rgb(38, 50, 56); stroke-miterlimit: 10; transform-origin: 165.94px 276.865px 0px;"
			id="el2gcjge642cn" class="animable"></line>
		<path
			d="M78.82,256.16s5.74-6.37,11.79-8.92,14-1.27,14-1.27L110,266.35s4.46,1.6,5.1,3.51c.45,1.36-.23,7.09-.65,10.27a2.49,2.49,0,0,1-2.47,2.15H98.89s-3.5.64-3.5-2.55v-5.41s-2.23-1.91-2.55-3.19a11.87,11.87,0,0,1-.32-2.55Z"
			style="fill: #FF66E8; stroke: rgb(38, 50, 56); stroke-miterlimit: 10; transform-origin: 97.034px 263.991px 0px;"
			id="elgwa0km43ix" class="animable"></path>
		<line x1="111" y1="281.96" x2="111.95" y2="271.13"
			style="fill: none; stroke: rgb(38, 50, 56); stroke-miterlimit: 10; transform-origin: 111.475px 276.545px 0px;"
			id="eluha530ccivn" class="animable"></line>
		<line x1="106.54" y1="282.28" x2="106.54" y2="271.77"
			style="fill: none; stroke: rgb(38, 50, 56); stroke-miterlimit: 10; transform-origin: 106.54px 277.025px 0px;"
			id="elgf4cv2wgm5" class="animable"></line>
		<line x1="101.44" y1="281.64" x2="101.44" y2="272.09"
			style="fill: none; stroke: rgb(38, 50, 56); stroke-miterlimit: 10; transform-origin: 101.44px 276.865px 0px;"
			id="eltwu3mpuhmps" class="animable"></line>
		<path
			d="M126.47,185.54s3.15,2.77,4.75,2.77h1.59s1.27,2.55,3.18,2.55,2.87-2.55,2.87-2.55a9,9,0,0,0,4.46-.64c1.91-.95,3.19-4.46,3.19-4.46l-21,.32Z"
			style="fill: rgb(255, 255, 255); stroke: rgb(38, 50, 56); stroke-miterlimit: 10; transform-origin: 136.01px 187.035px 0px;"
			id="elcr1pwn264q" class="animable"></path>
		<path
			d="M154.6,157.89c0,13.1-7.81,23.73-20,23.73s-20-10.63-20-23.73,7.81-26.6,20-26.6S154.6,144.78,154.6,157.89Z"
			style="fill: #FF66E8; stroke: rgb(38, 50, 56); stroke-miterlimit: 10; transform-origin: 134.6px 156.455px 0px;"
			id="eldiznk2vd7r5" class="animable"></path>
		<path d="M118.47,172.38s15.93,5.74,32.18,0l-1.05,7.69a6.48,6.48,0,0,1-6.4,5.47H126.47a6.48,6.48,0,0,1-6.31-5Z"
			style="fill: #FF66E8; stroke: rgb(38, 50, 56); stroke-miterlimit: 10; transform-origin: 134.56px 178.96px 0px;"
			id="elih1oq3bf2fg" class="animable"></path>
		<path d="M124.53,173.66V169.1a5.6,5.6,0,0,1,3-5l7.48-3.85,5.87,4.06a5.61,5.61,0,0,1,2.41,4.6v4.72"
			style="fill: none; stroke: rgb(38, 50, 56); stroke-miterlimit: 10; transform-origin: 133.91px 166.955px 0px;"
			id="elkhssnjlw0a8" class="animable"></path>
		<rect x="132.49" y="138.3" width="4.14" height="28.99" rx="1.97"
			style="fill: #FF66E8; stroke: rgb(38, 50, 56); stroke-miterlimit: 10; transform-origin: 134.56px 152.795px 0px;"
			id="elw1hmrrvbftr" class="animable"></rect>
	</g>
	<g id="freepik--floor-1--inject-4" style="transform-origin: 250.73px 457.67px 0px;" class="animable">
		<line x1="16" y1="457.67" x2="485.46" y2="457.67"
			style="fill: rgb(255, 255, 255); stroke: rgb(38, 50, 56); stroke-miterlimit: 10; transform-origin: 250.73px 457.67px 0px;"
			id="ele8r6rtv2b" class="animable"></line>
	</g>
	<defs>
		<filter id="active" height="200%">
			<feMorphology in="SourceAlpha" result="DILATED" operator="dilate" radius="2"></feMorphology>
			<feFlood flood-color="#32DFEC" flood-opacity="1" result="PINK"></feFlood>
			<feComposite in="PINK" in2="DILATED" operator="in" result="OUTLINE"></feComposite>
			<feMerge>
				<feMergeNode in="OUTLINE"></feMergeNode>
				<feMergeNode in="SourceGraphic"></feMergeNode>
			</feMerge>
		</filter>
		<filter id="hover" height="200%">
			<feMorphology in="SourceAlpha" result="DILATED" operator="dilate" radius="2"></feMorphology>
			<feFlood flood-color="#ff0000" flood-opacity="0.5" result="PINK"></feFlood>
			<feComposite in="PINK" in2="DILATED" operator="in" result="OUTLINE"></feComposite>
			<feMerge>
				<feMergeNode in="OUTLINE"></feMergeNode>
				<feMergeNode in="SourceGraphic"></feMergeNode>
			</feMerge>
			<feColorMatrix type="matrix"
				values="0   0   0   0   0                0   1   0   0   0                0   0   0   0   0                0   0   0   1   0 ">
			</feColorMatrix>
		</filter>
	</defs>
</svg>
